<?xml version="1.0" encoding="UTF-8" standalone="no"?>
<!-- Created with Inkscape (http://www.inkscape.org/) -->

<svg
   xmlns:dc="http://purl.org/dc/elements/1.1/"
   xmlns:cc="http://creativecommons.org/ns#"
   xmlns:rdf="http://www.w3.org/1999/02/22-rdf-syntax-ns#"
   xmlns:svg="http://www.w3.org/2000/svg"
   xmlns="http://www.w3.org/2000/svg"
   xmlns:sodipodi="http://sodipodi.sourceforge.net/DTD/sodipodi-0.dtd"
   xmlns:inkscape="http://www.inkscape.org/namespaces/inkscape"
   width="500"
   height="500"
   viewBox="0 0 500.00001 500.00001"
   id="svg2"
   version="1.1"
   inkscape:version="0.91 r13725"
   sodipodi:docname="icon4.svg">
  <defs
     id="defs4" />
  <sodipodi:namedview
     id="base"
     pagecolor="#ffffff"
     bordercolor="#666666"
     borderopacity="1.0"
     inkscape:pageopacity="0.0"
     inkscape:pageshadow="2"
     inkscape:zoom="1.979899"
     inkscape:cx="235.70415"
     inkscape:cy="80.195216"
     inkscape:document-units="px"
     inkscape:current-layer="layer1"
     showgrid="false"
     inkscape:window-width="1920"
     inkscape:window-height="1056"
     inkscape:window-x="0"
     inkscape:window-y="24"
     inkscape:window-maximized="1"
     units="px"
     showguides="true"
     inkscape:guide-bbox="true">
    <sodipodi:guide
       position="159.60411,71.531429"
       orientation="0,1"
       id="guide3486" />
  </sodipodi:namedview>
  <metadata
     id="metadata7">
    <rdf:RDF>
      <cc:Work
         rdf:about="">
        <dc:format>image/svg+xml</dc:format>
        <dc:type
           rdf:resource="http://purl.org/dc/dcmitype/StillImage" />
        <dc:title></dc:title>
      </cc:Work>
    </rdf:RDF>
  </metadata>
  <g
     inkscape:groupmode="layer"
     id="layer2"
     inkscape:label="Layer 2">
    <rect
       transform="translate(0,-552.36216)"
       style="fill:#ffffff;fill-opacity:1"
       id="rect3425"
       width="172.5"
       height="248.92857"
       x="169.64285"
       y="681.29071" />
  </g>
  <g
     inkscape:label="Layer 1"
     inkscape:groupmode="layer"
     id="layer1"
     transform="translate(0,-552.36216)">
    <g
       id="g3980"
       transform="translate(340.4011,257.56859)">
      <path
         style="fill:#9373cb"
         d="m -183.89458,723.47663 -57.58035,-0.53092 -55.90728,-4.50841 -2.08374,-4.54166 c -1.48617,-3.23925 -8.2762,-0.59396 -10.38188,-3.47045 l -3.12115,-4.26365 -2.19931,-158.6682 c -2.44302,-176.25026 1.02613,-161.74896 8.07661,-169.00778 7.4828,-7.70392 1.47374,-9.00647 74.6971,-9.6162 l 65.4053,0.74883 13.66291,-2.4452 c 24.22155,-4.33482 42.37053,-12.89954 68.868652,-11.99728 21.07848,0.71772 42.345908,6.8647 52.825609,10.03341 l 14.916777,4.51034 66.320749,-0.86261 c 72.840553,-0.94741 66.217793,1.68203 73.296943,8.9712 7.2885,7.50473 9.78446,-7.19542 9.47837,169.66534 l -1.60114,158.98391 -3.53151,4.83181 c -2.1035,2.87801 -4.33426,4.82301 -7.5724,6.31146 l -4.79852,2.20569 -56.191393,3.11945 -57.5803504,0.53092 c -72.8217506,-13.34483 -126.3975766,-9.97548 -184.9999966,0 z m 151.499997,-107.56185 0,-12 -60,0 -59.999997,0 0,12 0,12 59.999997,0 60,0 z m -33.53949,-57.5 25.52788,-38 -13.99419,-0.27746 -13.9942,-0.27745 0,-29.97255 0,-29.97254 -24,0 -23.999997,0 0,29.97254 0,29.97255 -13.991,0.27745 -13.991,0.27746 25.70025,38.26359 c 14.13513,21.04497 26.040917,38.14497 26.457307,38 0.41639,-0.14498 12.24462,-17.36359 26.28495,-38.26359 z"
         id="path3986"
         inkscape:connector-curvature="0"
         sodipodi:nodetypes="cccsscssscssscssscsscccccccccccccscccccccccccscs" />
      <path
         style="fill:#828a8e"
         d="m -237.77856,722.91992 c -40.26359,-0.004 -58.01577,-0.34423 -60.75758,-1.1657 -5.01585,-1.50278 -11.34077,-6.9574 -14.14293,-12.19689 l -2.21551,-4.14255 -0.27535,-158 c -0.25225,-144.74557 -0.13708,-158.36535 1.37286,-162.35513 2.09943,-5.54741 6.58627,-10.65971 11.80781,-13.45378 4.06589,-2.17568 4.55874,-2.19461 70.09468,-2.69109 l 66,-0.5 13.5,-4.69762 c 16.33677,-5.68473 30.14259,-8.49991 47.67549,-9.72163 27.595927,-1.92293 59.319757,2.67075 80.324507,11.63116 l 6.5,2.77283 66.5,0.50763 c 66.043463,0.50414 66.528113,0.52267 70.594683,2.69872 5.22154,2.79407 9.70838,7.90637 11.80781,13.45378 1.50994,3.98978 1.62511,17.60956 1.37286,162.35513 l -0.27535,158 -2.21551,4.14255 c -2.80216,5.23949 -9.12708,10.69411 -14.14293,12.19689 -2.74181,0.82147 -20.493993,1.16206 -60.757583,1.1657 -99.343151,0.34222 -200.436477,3.02879 -292.767957,0 z m 170.883977,-52.49896 c 26.06714,-5.37334 46.80137,-16.55026 65.6286396,-35.37754 18.9282804,-18.92827 29.8810104,-39.3132 35.5306204,-66.12864 2.4754,-11.74928 2.46719,-37.25235 -0.0157,-48.76818 -11.09388,-51.45435 -49.14121,-89.73927 -100.14356,-100.76891 -10.06751,-2.17718 -30.29625,-2.95024 -40.999997,-1.56687 -27.95187,3.61257 -55.02748,16.86811 -74.93388,36.68578 -17.7296,17.65057 -30.67062,42.10387 -35.6786,67.41818 -1.97406,9.97845 -1.71636,36.70227 0.45322,47 5.36404,25.46 16.184,46.27768 33.25872,63.98999 9.93352,10.30445 15.87442,15.08261 27.26405,21.92797 14.12345,8.48845 31.90926,14.7076 48.63649,17.00671 9.631417,1.3238 31.340167,0.57274 40.999997,-1.41849 z"
         id="path3984"
         inkscape:connector-curvature="0"
         sodipodi:nodetypes="csscsssscssscsssscssccsssssssssssss" />
      <path
         style="fill:#502da5"
         d="m -106.39458,736.3247 c -21.06087,-2.49536 -35.83903,-5.72586 -50.75279,-11.09453 -5.36097,-1.92985 -11.32924,-3.89386 -13.26282,-4.36448 -5.04976,-1.22905 -21.4435,-10.37974 -32.13416,-17.9367 -10.62253,-7.50881 -27.06652,-22.88298 -36.23539,-33.87799 -48.21833,-57.82184 -58.28445,-139.24472 -25.58978,-206.99065 23.0249,-47.70941 61.99554,-82.01444 111.97494,-98.56918 91.412177,-30.27858 189.642487,10.04119 232.478817,95.42361 22.974153,45.79263 26.838883,97.89011 10.90485,147 -4.19787,12.93816 -15.27818,35.63344 -22.94638,47 -17.00699,25.20944 -40.45716,46.91841 -66.4256704,61.49348 -5.23926,2.94058 -10.87271,5.65304 -12.5187696,6.02768 -1.64607,0.37464 -7.04285,2.15833 -11.99285,3.96376 -21.38187,7.79869 -40.94189,11.45985 -64,11.97927 -8.8,0.19823 -17.574997,0.17381 -19.499997,-0.0543 z m 39.499997,-65.90374 c 26.06714,-5.37334 46.80137,-16.55026 65.6286396,-35.37754 18.9282804,-18.92827 29.8810104,-39.3132 35.5306204,-66.12864 2.4754,-11.74928 2.46719,-37.25235 -0.0157,-48.76818 -11.09388,-51.45435 -49.14121,-89.73927 -100.14356,-100.76891 -10.06751,-2.17718 -30.29625,-2.95024 -40.999997,-1.56687 -27.95187,3.61257 -55.02748,16.86811 -74.93388,36.68578 -17.7296,17.65057 -30.67062,42.10387 -35.6786,67.41818 -1.97406,9.97845 -1.71636,36.70227 0.45322,47 5.36404,25.46 16.184,46.27768 33.25872,63.98999 9.93352,10.30445 15.87442,15.08261 27.26405,21.92797 14.12345,8.48845 31.90926,14.7076 48.63649,17.00671 9.631417,1.3238 31.340167,0.57274 40.999997,-1.41849 z"
         id="path3982"
         inkscape:connector-curvature="0" />
    </g>
    <rect
       style="fill:none;fill-opacity:1"
       id="rect3392"
       width="72.85714"
       height="42.5"
       x="143.21428"
       y="978.07648" />
    <rect
       style="fill:none;fill-opacity:1"
       id="rect3394"
       width="2.5"
       height="9.2857141"
       x="190.35715"
       y="993.79071" />
    <rect
       style="fill:none;fill-opacity:1"
       id="rect3396"
       width="194.28572"
       height="19.285715"
       x="150.35715"
       y="980.57648" />
    <rect
       style="fill:none;fill-opacity:1"
       id="rect3401"
       width="1.4285715"
       height="54.285713"
       x="415.71429"
       y="940.57648" />
  </g>
</svg>
